<svg aria-hidden="true" style="position:absolute;width:0;height:0" xmlns="http://www.w3.org/2000/svg" overflow="hidden"><defs><symbol id="bubble" viewBox="0 0 32 32"><path d="M16 2c8.837 0 16 5.82 16 13s-7.163 13-16 13a19.66 19.66 0 01-2.495-.158C10.068 31.279 5.966 31.895 2 31.986v-.841C4.142 30.096 6 28.184 6 26c0-.305-.024-.604-.068-.897C2.313 22.72 0 19.079 0 15 0 7.82 7.163 2 16 2z"/></symbol><symbol id="gift" viewBox="0 0 32 32"><path d="M24.11 10a12.62 12.62 0 001.608-1.348c1.044-1.044 1.742-2.328 1.966-3.616.246-1.412-.115-2.723-.988-3.597-.697-.697-1.641-1.065-2.73-1.065-1.551 0-3.185.744-4.483 2.043-2.077 2.077-3.288 4.945-3.94 6.991-.482-2.056-1.444-4.833-3.313-6.702-1.003-1.003-2.285-1.518-3.495-1.518-.989 0-1.931.344-2.633 1.046-1.562 1.562-1.351 4.306.471 6.128.65.65 1.409 1.189 2.21 1.638H2.001v8h2v14h24V18h2v-8h-5.89zm-3.037-5.993c.866-.866 1.948-1.384 2.892-1.384.334 0 .803.07 1.139.406.813.813.357 2.697-.977 4.031-1.373 1.373-3.221 2.318-4.826 2.939h-1.584c.58-1.798 1.627-4.264 3.356-5.993zM7.31 5.028c-.022-.285-.002-.82.381-1.203.32-.32.743-.387 1.042-.387.664 0 1.358.313 1.904.859 1.059 1.058 1.93 2.743 2.521 4.871l.047.171-.171-.047c-2.128-.591-3.813-1.462-4.871-2.521-.495-.495-.805-1.13-.853-1.743zM14 30H6V17h8v13zm0-14H4v-4h10v4zm12 14h-8V17h8v13zm2-14H18v-4h10v4z"/></symbol><symbol id="spoon-knife" viewBox="0 0 32 32"><path d="M7 0C3.686 0 1 3.134 1 7c0 3.31 1.969 6.083 4.616 6.812l-.993 16.191a1.863 1.863 0 001.878 1.996h1c1.1 0 1.945-.898 1.878-1.996l-.993-16.191c2.646-.729 4.616-3.502 4.616-6.812 0-3.866-2.686-7-6-7zm20.167 0L25.5 10h-1.25l-.833-10h-.833l-.833 10h-1.25L18.834 0h-.833v13a1 1 0 001 1h2.604l-.982 16.004A1.863 1.863 0 0022.501 32h1c1.1 0 1.945-.898 1.878-1.996L24.397 14h2.604a1 1 0 001-1V0h-.833z"/></symbol><symbol id="fire" viewBox="0 0 32 32"><path d="M10.031 32c-2.133-4.438-.997-6.981.642-9.376 1.795-2.624 2.258-5.221 2.258-5.221s1.411 1.834.847 4.703c2.493-2.775 2.963-7.196 2.587-8.889C22 17.155 24.408 25.681 21.163 32c17.262-9.767 4.294-24.38 2.036-26.027.753 1.646.895 4.433-.625 5.785C20.001 1.999 13.637-.001 13.637-.001c.753 5.033-2.728 10.536-6.084 14.648-.118-2.007-.243-3.392-1.298-5.312-.237 3.646-3.023 6.617-3.777 10.27-1.022 4.946.765 8.568 7.555 12.394z"/></symbol><symbol id="truck" viewBox="0 0 32 32"><path d="M32 18l-4-8h-6V6c0-1.1-.9-2-2-2H2C.9 4 0 4.9 0 6v16l2 2h2.536a4 4 0 106.928 0h11.073a4 4 0 106.926 0H32v-6zm-10 0v-6h4.146l3 6H22z"/></symbol><symbol id="menu" viewBox="0 0 32 32"><path d="M2 6h28v6H2zm0 8h28v6H2zm0 8h28v6H2z"/></symbol><symbol id="wink" viewBox="0 0 32 32"><path d="M16 32c8.837 0 16-7.163 16-16S24.837 0 16 0 0 7.163 0 16s7.163 16 16 16zm0-29c7.18 0 13 5.82 13 13s-5.82 13-13 13S3 23.18 3 16 8.82 3 16 3zm.961 19.22c4.383-.866 7.785-2.861 9.014-5.519C25.298 21.95 20.928 26 15.636 26c-3.726 0-6.996-2.009-8.84-5.03 2.2 1.721 6.079 2.056 10.165 1.249zM20 11c0-1.657.895-3 2-3s2 1.343 2 3-.895 3-2 3-2-1.343-2-3zm-9 .609c-1.306 0-2.417.489-2.829 1.172C8.06 12.598 8 11.776 8 11.57c0-.971 1.343-1.758 3-1.758s3 .787 3 1.758c0 .206-.061 1.028-.171 1.211-.412-.683-1.522-1.172-2.829-1.172z"/></symbol><symbol id="cross" viewBox="0 0 32 32"><path d="M31.708 25.708L22 16l9.708-9.708a1 1 0 000-1.414L27.122.292a1 1 0 00-1.414-.001L16 9.999 6.292.291a.998.998 0 00-1.414.001L.292 4.878a1 1 0 000 1.414L10 16 .292 25.708a.999.999 0 000 1.414l4.586 4.586a1 1 0 001.414 0L16 22l9.708 9.708a1 1 0 001.414 0l4.586-4.586a.999.999 0 000-1.414z"/></symbol><symbol id="checkmark" viewBox="0 0 32 32"><path d="M27 4L12 19l-7-7-5 5 12 12L32 9z"/></symbol><symbol id="mail4" viewBox="0 0 32 32"><path d="M16 0C7.163 0 0 7.163 0 16s7.163 16 16 16 16-7.163 16-16S24.837 0 16 0zM8 8h16c.286 0 .563.061.817.177L16 18.463 7.183 8.176c.254-.116.531-.177.817-.177zM6 22V10c0-.042.002-.084.004-.125l5.864 6.842-5.8 5.8A1.983 1.983 0 015.999 22zm18 2H8c-.177 0-.35-.024-.517-.069l5.691-5.691L16 21.537l2.826-3.297 5.691 5.691c-.167.045-.34.069-.517.069zm2-2c0 .177-.024.35-.069.517l-5.8-5.8 5.865-6.842c.003.041.004.083.004.125v12z"/></symbol><symbol id="facebook" viewBox="0 0 32 32"><path d="M19 6h5V0h-5c-3.86 0-7 3.14-7 7v3H8v6h4v16h6V16h5l1-6h-6V7c0-.542.458-1 1-1z"/></symbol><symbol id="instagram" viewBox="0 0 32 32"><path d="M16 2.881c4.275 0 4.781.019 6.462.094 1.563.069 2.406.331 2.969.55a4.952 4.952 0 011.837 1.194 5.015 5.015 0 011.2 1.838c.219.563.481 1.412.55 2.969.075 1.688.094 2.194.094 6.463s-.019 4.781-.094 6.463c-.069 1.563-.331 2.406-.55 2.969a4.94 4.94 0 01-1.194 1.837 5.02 5.02 0 01-1.837 1.2c-.563.219-1.413.481-2.969.55-1.688.075-2.194.094-6.463.094s-4.781-.019-6.463-.094c-1.563-.069-2.406-.331-2.969-.55a4.952 4.952 0 01-1.838-1.194 5.02 5.02 0 01-1.2-1.837c-.219-.563-.481-1.413-.55-2.969-.075-1.688-.094-2.194-.094-6.463s.019-4.781.094-6.463c.069-1.563.331-2.406.55-2.969a4.964 4.964 0 011.194-1.838 5.015 5.015 0 011.838-1.2c.563-.219 1.412-.481 2.969-.55 1.681-.075 2.188-.094 6.463-.094zM16 0c-4.344 0-4.887.019-6.594.094-1.7.075-2.869.35-3.881.744-1.056.412-1.95.956-2.837 1.85a7.833 7.833 0 00-1.85 2.831C.444 6.538.169 7.7.094 9.4.019 11.113 0 11.656 0 16s.019 4.887.094 6.594c.075 1.7.35 2.869.744 3.881.413 1.056.956 1.95 1.85 2.837a7.82 7.82 0 002.831 1.844c1.019.394 2.181.669 3.881.744 1.706.075 2.25.094 6.594.094s4.888-.019 6.594-.094c1.7-.075 2.869-.35 3.881-.744 1.05-.406 1.944-.956 2.831-1.844s1.438-1.781 1.844-2.831c.394-1.019.669-2.181.744-3.881.075-1.706.094-2.25.094-6.594s-.019-4.887-.094-6.594c-.075-1.7-.35-2.869-.744-3.881a7.506 7.506 0 00-1.831-2.844A7.82 7.82 0 0026.482.843C25.463.449 24.301.174 22.601.099c-1.712-.081-2.256-.1-6.6-.1z"/><path d="M16 7.781c-4.537 0-8.219 3.681-8.219 8.219s3.681 8.219 8.219 8.219 8.219-3.681 8.219-8.219A8.221 8.221 0 0016 7.781zm0 13.55a5.331 5.331 0 110-10.663 5.331 5.331 0 010 10.663zM26.462 7.456a1.919 1.919 0 11-3.838 0 1.919 1.919 0 013.838 0z"/></symbol><symbol id="whatsapp" viewBox="0 0 32 32"><path d="M27.281 4.65C24.287 1.65 20.306 0 16.062 0 7.324 0 .212 7.112.212 15.856c0 2.794.731 5.525 2.119 7.925L.081 32l8.406-2.206a15.858 15.858 0 007.575 1.931h.006c8.738 0 15.856-7.113 15.856-15.856 0-4.238-1.65-8.219-4.644-11.219zm-11.212 24.4a13.17 13.17 0 01-6.713-1.837l-.481-.288-4.987 1.306 1.331-4.863-.313-.5a13.086 13.086 0 01-2.019-7.012c0-7.269 5.912-13.181 13.188-13.181 3.519 0 6.831 1.375 9.319 3.862a13.108 13.108 0 013.856 9.325c-.006 7.275-5.919 13.188-13.181 13.188zm7.225-9.875c-.394-.2-2.344-1.156-2.706-1.288s-.625-.2-.894.2c-.262.394-1.025 1.288-1.256 1.556-.231.262-.462.3-.856.1s-1.675-.619-3.188-1.969c-1.175-1.05-1.975-2.35-2.206-2.744s-.025-.613.175-.806c.181-.175.394-.463.594-.694s.262-.394.394-.662c.131-.262.069-.494-.031-.694s-.894-2.15-1.219-2.944c-.319-.775-.65-.669-.894-.681-.231-.012-.494-.012-.756-.012s-.694.1-1.056.494c-.363.394-1.387 1.356-1.387 3.306s1.419 3.831 1.619 4.1c.2.262 2.794 4.269 6.769 5.981.944.406 1.681.65 2.256.837.95.3 1.813.256 2.494.156.762-.113 2.344-.956 2.675-1.881s.331-1.719.231-1.881c-.094-.175-.356-.275-.756-.475z"/></symbol><symbol id="telegram" viewBox="0 0 32 32"><path d="M16 0C7.162 0 0 7.162 0 16s7.162 16 16 16 16-7.163 16-16S24.837 0 16 0zm7.863 10.969l-2.625 12.369c-.181.881-.712 1.087-1.45.681l-4-2.956-1.919 1.869c-.225.219-.4.4-.8.4-.519 0-.431-.194-.606-.688L11.1 18.169l-3.956-1.231c-.856-.262-.862-.85.194-1.269l15.412-5.95c.7-.319 1.381.169 1.113 1.25z"/></symbol><symbol id="vk" viewBox="0 0 32 32"><path d="M29 0H3C1.35 0 0 1.35 0 3v26c0 1.65 1.35 3 3 3h26c1.65 0 3-1.35 3-3V3c0-1.65-1.35-3-3-3zm-3.081 22.4l-2.925.044s-.631.125-1.456-.444c-1.094-.75-2.125-2.706-2.931-2.45-.813.256-.788 2.012-.788 2.012s.006.375-.181.575c-.2.219-.6.262-.6.262h-1.306s-2.888.175-5.431-2.475c-2.775-2.887-5.225-8.619-5.225-8.619s-.144-.375.013-.556c.175-.206.644-.219.644-.219l3.131-.019s.294.05.506.206c.175.125.269.369.269.369s.506 1.281 1.175 2.438c1.306 2.256 1.919 2.75 2.362 2.513.644-.35.45-3.194.45-3.194s.012-1.031-.325-1.488c-.262-.356-.756-.463-.969-.488-.175-.025.113-.431.488-.619.563-.275 1.556-.294 2.731-.281.913.006 1.181.069 1.538.15 1.081.262.712 1.269.712 3.681 0 .775-.137 1.863.419 2.219.238.156.825.025 2.294-2.469.694-1.181 1.219-2.569 1.219-2.569s.113-.25.288-.356c.181-.106.425-.075.425-.075l3.294-.019s.988-.119 1.15.331c.169.469-.369 1.563-1.712 3.356-2.206 2.944-2.456 2.669-.619 4.369 1.75 1.625 2.113 2.419 2.175 2.519.712 1.2-.813 1.294-.813 1.294z"/></symbol></defs></svg>